HIERARCHY
ROOT Hips
{
  OFFSET 150.432 88.1888 27.0678
  CHANNELS 6 Xposition Yposition Zposition Zrotation Xrotation Yrotation
  JOINT RightUpLeg
  {
    OFFSET -9.25679 -1.50405 0.000749919
    CHANNELS 3 Zrotation Xrotation Yrotation
    JOINT RightLeg
    {
      OFFSET 0.0460649 -41.9017 0.109432
      CHANNELS 3 Zrotation Xrotation Yrotation
      JOINT RightFoot
      {
        OFFSET 1.7988 -41.6468 0.413135
        CHANNELS 3 Zrotation Xrotation Yrotation
        End Site
        {
          OFFSET 0 -7.69 17.5
        }
      }
    }
  }
  JOINT LeftUpLeg
  {
    OFFSET 9.37007 -1.70178 -0.0772456
    CHANNELS 3 Zrotation Xrotation Yrotation
    JOINT LeftLeg
    {
      OFFSET 0.225295 -41.8622 -0.102498
      CHANNELS 3 Zrotation Xrotation Yrotation
      JOINT LeftFoot
      {
        OFFSET -2.07126 -41.2817 -1.22305
        CHANNELS 3 Zrotation Xrotation Yrotation
        End Site
        {
          OFFSET 0 -7.69 17.5
        }
      }
    }
  }
  JOINT Spine
  {
    OFFSET 0.0614897 14.2979 0.0172263
    CHANNELS 3 Zrotation Xrotation Yrotation
    JOINT Spine1
    {
      OFFSET 0.0253415 9.71429 0.00919728
      CHANNELS 3 Zrotation Xrotation Yrotation
      JOINT Spine2
      {
        OFFSET -0.0163533 10.1275 0.00641818
        CHANNELS 3 Zrotation Xrotation Yrotation
        JOINT Spine3
        {
          OFFSET 0.00964153 9.71178 0.018187
          CHANNELS 3 Zrotation Xrotation Yrotation
          JOINT Neck
          {
            OFFSET -0.0402277 10.3749 0.0917408
            CHANNELS 3 Zrotation Xrotation Yrotation
            JOINT Head
            {
              OFFSET 0.0121048 9.49481 0.108971
              CHANNELS 3 Zrotation Xrotation Yrotation
              End Site
              {
                OFFSET 0 15.95 0
              }
            }
          }
          JOINT RightShoulder
          {
            OFFSET -3.18208 6.946 0.015457
            CHANNELS 3 Zrotation Xrotation Yrotation
            JOINT RightArm
            {
              OFFSET -12.7708 0.0386499 -0.00729584
              CHANNELS 3 Zrotation Xrotation Yrotation
              JOINT RightForeArm
              {
                OFFSET -26.422 0.00272702 0.0331834
                CHANNELS 3 Zrotation Xrotation Yrotation
                JOINT RightHand
                {
                  OFFSET -25.9963 -0.0318335 0.00677283
                  CHANNELS 3 Zrotation Xrotation Yrotation
                  JOINT RightHandThumb1
                  {
                    OFFSET -2.48905 0.190105 3.12053
                    CHANNELS 3 Zrotation Xrotation Yrotation
                    JOINT RightHandThumb2
                    {
                      OFFSET -3.68274 0 0
                      CHANNELS 3 Zrotation Xrotation Yrotation
                      JOINT RightHandThumb3
                      {
                        OFFSET -2.55832 0 0
                        CHANNELS 3 Zrotation Xrotation Yrotation
                        End Site
                        {
                          OFFSET -2.194 0 0
                        }
                      }
                    }
                  }
                  JOINT RightInHandIndex
                  {
                    OFFSET -3.22368 0.508421 1.97842
                    CHANNELS 3 Zrotation Xrotation Yrotation
                    JOINT RightHandIndex1
                    {
                      OFFSET -5.21684 -0.091368 0.999158
                      CHANNELS 3 Zrotation Xrotation Yrotation
                      JOINT RightHandIndex2
                      {
                        OFFSET -3.61937 0 0
                        CHANNELS 3 Zrotation Xrotation Yrotation
                        JOINT RightHandIndex3
                        {
                          OFFSET -2.0521 0 0
                          CHANNELS 3 Zrotation Xrotation Yrotation
                          End Site
                          {
                            OFFSET -1.805 0 0
                          }
                        }
                      }
                    }
                  }
                  JOINT RightInHandMiddle
                  {
                    OFFSET -3.38211 0.517263 0.756737
                    CHANNELS 3 Zrotation Xrotation Yrotation
                    JOINT RightHandMiddle1
                    {
                      OFFSET -5.17411 -0.084 0.313895
                      CHANNELS 3 Zrotation Xrotation Yrotation
                      JOINT RightHandMiddle2
                      {
                        OFFSET -3.94947 0 0
                        CHANNELS 3 Zrotation Xrotation Yrotation
                        JOINT RightHandMiddle3
                        {
                          OFFSET -2.47579 0 0
                          CHANNELS 3 Zrotation Xrotation Yrotation
                          End Site
                          {
                            OFFSET -1.975 0 0
                          }
                        }
                      }
                    }
                  }
                  JOINT RightInHandRing
                  {
                    OFFSET -3.36516 0.537895 -0.128947
                    CHANNELS 3 Zrotation Xrotation Yrotation
                    JOINT RightHandRing1
                    {
                      OFFSET -4.63474 -0.022105 -0.478947
                      CHANNELS 3 Zrotation Xrotation Yrotation
                      JOINT RightHandRing2
                      {
                        OFFSET -3.44238 0 0
                        CHANNELS 3 Zrotation Xrotation Yrotation
                        JOINT RightHandRing3
                        {
                          OFFSET -2.3881 0 0
                          CHANNELS 3 Zrotation Xrotation Yrotation
                          End Site
                          {
                            OFFSET -1.857 0 0
                          }
                        }
                      }
                    }
                  }
                  JOINT RightInHandPinky
                  {
                    OFFSET -3.16105 0.469368 -1.20179
                    CHANNELS 3 Zrotation Xrotation Yrotation
                    JOINT RightHandPinky1
                    {
                      OFFSET -4.14105 -0.022105 -1.09053
                      CHANNELS 3 Zrotation Xrotation Yrotation
                      JOINT RightHandPinky2
                      {
                        OFFSET -2.75653 0 0
                        CHANNELS 3 Zrotation Xrotation Yrotation
                        JOINT RightHandPinky3
                        {
                          OFFSET -1.74189 0 0
                          CHANNELS 3 Zrotation Xrotation Yrotation
                          End Site
                          {
                            OFFSET -1.645 0 0
                          }
                        }
                      }
                    }
                  }
                }
              }
            }
          }
          JOINT LeftShoulder
          {
            OFFSET 3.18966 6.92856 0.062398
            CHANNELS 3 Zrotation Xrotation Yrotation
            JOINT LeftArm
            {
              OFFSET 12.7601 -0.0509086 0.00275124
              CHANNELS 3 Zrotation Xrotation Yrotation
              JOINT LeftForeArm
              {
                OFFSET 26.4828 -0.0571091 -0.0285564
                CHANNELS 3 Zrotation Xrotation Yrotation
                JOINT LeftHand
                {
                  OFFSET 25.9994 -0.0171136 -0.0547064
                  CHANNELS 3 Zrotation Xrotation Yrotation
                  JOINT LeftHandThumb1
                  {
                    OFFSET 2.48905 0.190105 3.12053
                    CHANNELS 3 Zrotation Xrotation Yrotation
                    JOINT LeftHandThumb2
                    {
                      OFFSET 3.68274 0 0
                      CHANNELS 3 Zrotation Xrotation Yrotation
                      JOINT LeftHandThumb3
                      {
                        OFFSET 2.55832 0 0
                        CHANNELS 3 Zrotation Xrotation Yrotation
                        End Site
                        {
                          OFFSET 2.194 0 0
                        }
                      }
                    }
                  }
                  JOINT LeftInHandIndex
                  {
                    OFFSET 3.22368 0.508421 1.97842
                    CHANNELS 3 Zrotation Xrotation Yrotation
                    JOINT LeftHandIndex1
                    {
                      OFFSET 5.21684 -0.091368 0.999158
                      CHANNELS 3 Zrotation Xrotation Yrotation
                      JOINT LeftHandIndex2
                      {
                        OFFSET 3.61937 0 0
                        CHANNELS 3 Zrotation Xrotation Yrotation
                        JOINT LeftHandIndex3
                        {
                          OFFSET 2.0521 0 0
                          CHANNELS 3 Zrotation Xrotation Yrotation
                          End Site
                          {
                            OFFSET 1.805 0 0
                          }
                        }
                      }
                    }
                  }
                  JOINT LeftInHandMiddle
                  {
                    OFFSET 3.38211 0.517263 0.756737
                    CHANNELS 3 Zrotation Xrotation Yrotation
                    JOINT LeftHandMiddle1
                    {
                      OFFSET 5.17411 -0.084 0.313895
                      CHANNELS 3 Zrotation Xrotation Yrotation
                      JOINT LeftHandMiddle2
                      {
                        OFFSET 3.94947 0 0
                        CHANNELS 3 Zrotation Xrotation Yrotation
                        JOINT LeftHandMiddle3
                        {
                          OFFSET 2.47579 0 0
                          CHANNELS 3 Zrotation Xrotation Yrotation
                          End Site
                          {
                            OFFSET 1.975 0 0
                          }
                        }
                      }
                    }
                  }
                  JOINT LeftInHandRing
                  {
                    OFFSET 3.36516 0.537895 -0.128947
                    CHANNELS 3 Zrotation Xrotation Yrotation
                    JOINT LeftHandRing1
                    {
                      OFFSET 4.63474 -0.022105 -0.478947
                      CHANNELS 3 Zrotation Xrotation Yrotation
                      JOINT LeftHandRing2
                      {
                        OFFSET 3.44238 0 0
                        CHANNELS 3 Zrotation Xrotation Yrotation
                        JOINT LeftHandRing3
                        {
                          OFFSET 2.3881 0 0
                          CHANNELS 3 Zrotation Xrotation Yrotation
                          End Site
                          {
                            OFFSET 1.857 0 0
                          }
                        }
                      }
                    }
                  }
                  JOINT LeftInHandPinky
                  {
                    OFFSET 3.16105 0.469368 -1.20179
                    CHANNELS 3 Zrotation Xrotation Yrotation
                    JOINT LeftHandPinky1
                    {
                      OFFSET 4.14105 -0.022105 -1.09053
                      CHANNELS 3 Zrotation Xrotation Yrotation
                      JOINT LeftHandPinky2
                      {
                        OFFSET 2.75653 0 0
                        CHANNELS 3 Zrotation Xrotation Yrotation
                        JOINT LeftHandPinky3
                        {
                          OFFSET 1.74189 0 0
                          CHANNELS 3 Zrotation Xrotation Yrotation
                          End Site
                          {
                            OFFSET 1.645 0 0
                          }
                        }
                      }
                    }
                  }
                }
              }
            }
          }
        }
      }
    }
  }
}
MOTION
Frames: 3
Frame Time: 0.00833333
4.501321808838685001e+02 -3.826600343926318815e-02 -1.601730818004933332e-01 -5.944053166058780313e-01 -3.086814662434728684e-01 -1.398497132398485387e+00 1.066266467772717164e+00 5.919049528444726704e-02 7.879599591830916960e-01 2.189619943581157246e-01 -2.176191948696828971e-01 2.044476362708664841e-01 -2.667507065813251033e-01 6.181205599992225519e-01 6.728600703141428552e-01 -1.050790450380925389e-01 9.724263578585442547e-01 -1.078758705116629746e-01 -4.297837231217848664e-01 2.182550335354277726e-01 5.996507887193350816e-01 -4.389616395068787758e-01 -5.308081313624545272e-01 4.116974652072062368e-01 -7.180433512899131454e-01 -2.139549223871561601e-01 -1.851918955026618865e-02 -1.900505789207575791e-01 4.772184310260607631e-02 1.515845581512723778e-02 -2.494429375453099118e-01 -2.141519419662380186e-01 -9.750072174287097160e-02 4.543747055739757318e-02 -6.567995771367719782e-02 1.638684143768669860e-02 -3.416793437939567857e-03 -5.551155834925292770e-02 7.395270997717935391e-01 9.373079324739773677e-01 -1.148145401853930103e+00 5.969694384696849765e-02 -9.524826951933956787e-02 9.426917874300460021e-01 7.460107403090191491e-01 -2.484453018782091682e+00 -8.345001653201574499e+00 -1.423735714776446004e+00 1.958235648419274000e+00 1.448944345554417445e+01 1.549622005141536647e+02 4.422824459248068107e-01 3.441102860922415907e+00 2.366978208660149186e+00 0.000000000000000000e+00 0.000000000000000000e+00 0.000000000000000000e+00 -1.563775715984657290e-15 -4.570819727845448540e-15 0.000000000000000000e+00 -7.700879912808509527e-15 -2.568005689373814518e-15 0.000000000000000000e+00 -6.680362594058625928e-16 -9.638451748207144718e-15 -6.347674945474306127e-16 0.000000000000000000e+00 0.000000000000000000e+00 0.000000000000000000e+00 0.000000000000000000e+00 3.697538223192001064e-15 1.752266515572870404e-15 0.000000000000000000e+00 -1.353961857306299027e-15 6.177615020000312879e-15 -6.680362594058625928e-16 -9.638451748207144718e-15 -6.347674945474306127e-16 0.000000000000000000e+00 6.775935638588866100e-15 3.427873333897618177e-15 0.000000000000000000e+00 5.289663693900656238e-15 1.823704621874954649e-14 0.000000000000000000e+00 -2.965248418974122387e-15 -2.673576948276026638e-15 -6.680362594058625928e-16 -9.638451748207144718e-15 -6.347674945474306127e-16 0.000000000000000000e+00 0.000000000000000000e+00 0.000000000000000000e+00 0.000000000000000000e+00 1.982250172904090630e-15 7.029812332674258300e-15 0.000000000000000000e+00 4.474081547837251090e-15 9.178907792614417071e-15 -6.680362594058625928e-16 -9.638451748207144718e-15 -6.347674945474306127e-16 0.000000000000000000e+00 0.000000000000000000e+00 0.000000000000000000e+00 0.000000000000000000e+00 7.146902249283303126e-15 2.877043743201668684e-14 0.000000000000000000e+00 1.197752960216385776e-14 1.672403335829074342e-14 -3.264438464823428143e-01 -6.762648657278406139e-01 6.215829846555969151e-01 5.091121595830105484e+00 -4.189954607376466633e+00 -6.691538181366381011e+00 -1.431231049943828637e+01 9.463619554274133705e+00 1.748558627146238464e+01 -1.495553941506971407e+00 -7.284169118001956988e+00 -8.434379901032412974e+00 0.000000000000000000e+00 0.000000000000000000e+00 0.000000000000000000e+00 -3.709767365646151443e-16 -6.292026009929561560e-15 0.000000000000000000e+00 3.036172530226519465e-16 5.304373680718409292e-15 0.000000000000000000e+00 1.545592922417612552e-15 9.541397479909349677e-16 4.502203029122873367e-15 0.000000000000000000e+00 0.000000000000000000e+00 0.000000000000000000e+00 0.000000000000000000e+00 4.701567068614272862e-15 -4.131394624718109846e-16 0.000000000000000000e+00 -6.024895373115515218e-15 -7.918714392560480430e-15 1.545592922417612552e-15 9.541397479909349677e-16 4.502203029122873367e-15 0.000000000000000000e+00 -5.749339113519867994e-15 -5.328251707486420195e-16 0.000000000000000000e+00 1.314611182983454847e-15 -1.015549573259349642e-14 0.000000000000000000e+00 -3.507304482144883217e-15 3.251332397363683536e-15 1.545592922417612552e-15 9.541397479909349677e-16 4.502203029122873367e-15 0.000000000000000000e+00 0.000000000000000000e+00 0.000000000000000000e+00 0.000000000000000000e+00 6.627118568655706821e-16 -1.084667689092603390e-14 0.000000000000000000e+00 1.830507480126403579e-14 -9.918593283220793956e-15 1.545592922417612552e-15 9.541397479909349677e-16 4.502203029122873367e-15 0.000000000000000000e+00 0.000000000000000000e+00 0.000000000000000000e+00 0.000000000000000000e+00 -1.698470981536231462e-15 -1.079534267766505329e-14 0.000000000000000000e+00 -2.248907156910124340e-15 -7.513861155404744782e-15
4.501233145832038645e+02 -4.064356728035208727e-02 -1.296770700716232405e-01 -5.340790744982764071e-01 -3.240954261236292933e-01 -1.315864734427671046e+00 1.062931375054462446e+00 -2.302064668654653368e-02 7.436930232932852380e-01 2.224423648867509817e-01 -2.000554811646285958e-01 2.155523803810178718e-01 -2.595023854535963848e-01 5.971475472383521721e-01 6.592574297842092035e-01 -6.245814393395924397e-02 8.615131126849303600e-01 -9.586292056374352832e-02 -3.832661718645869464e-01 2.508248663203190287e-01 5.818108290566740282e-01 -4.295894521861949866e-01 -5.345690400872415982e-01 3.982752170778690037e-01 -7.101261979699950988e-01 -1.788364677135581282e-01 -2.195462191020864512e-02 -1.830332140332914803e-01 -1.311781869109016757e-02 4.441190661984084978e-03 -2.421705356368450412e-01 -1.877892698500003565e-01 -1.043538156176211651e-01 4.399456885483880864e-02 -6.599996604039044812e-02 1.793149086973777270e-02 5.853309305234973697e-03 -4.436396436453800968e-02 4.967738074755418953e-01 8.946749529761152120e-01 -1.169067663132615786e+00 2.572163584917518397e-01 -1.368209958007084448e-01 9.312504108603534281e-01 5.690194068856619936e-01 -1.922791094861852956e+00 -8.362779017066369391e+00 -1.566880033912595227e+00 1.640523288753258813e+00 1.422799981450243401e+01 1.702981780791234314e+02 2.151178165699426381e-01 3.365105238416457922e+00 2.488940424878361757e+00 0.000000000000000000e+00 0.000000000000000000e+00 0.000000000000000000e+00 -1.438686509266050865e-15 -4.450276631907259010e-15 0.000000000000000000e+00 -7.933741751126983152e-15 -2.431280834476649347e-15 0.000000000000000000e+00 -4.806585573964996428e-16 -9.539706943389106110e-15 -1.687977601132832714e-16 0.000000000000000000e+00 0.000000000000000000e+00 0.000000000000000000e+00 0.000000000000000000e+00 3.144203581403724180e-15 1.413626045615420151e-15 0.000000000000000000e+00 -1.384850864092378504e-15 6.478958902553538875e-15 -4.806585573964996428e-16 -9.539706943389106110e-15 -1.687977601132832714e-16 0.000000000000000000e+00 7.298089270703608276e-15 2.808169893185614448e-15 0.000000000000000000e+00 5.632313763457128802e-15 1.777637040349270503e-14 0.000000000000000000e+00 -2.846674538650974625e-15 -3.130746871212579015e-15 -4.806585573964996428e-16 -9.539706943389106110e-15 -1.687977601132832714e-16 0.000000000000000000e+00 0.000000000000000000e+00 0.000000000000000000e+00 0.000000000000000000e+00 2.203031569777440979e-15 6.617260362064774495e-15 0.000000000000000000e+00 4.703953315013373993e-15 8.660556275073887414e-15 -4.806585573964996428e-16 -9.539706943389106110e-15 -1.687977601132832714e-16 0.000000000000000000e+00 0.000000000000000000e+00 0.000000000000000000e+00 0.000000000000000000e+00 6.980962552233998939e-15 2.800683243313060980e-14 0.000000000000000000e+00 1.135500846616702679e-14 1.690937624491793494e-14 -3.327156992001666924e-01 -6.486833914159755299e-01 5.666556315702359070e-01 5.684141899973440992e+00 -4.034529476354298261e+00 -7.280119218577020490e+00 -1.299316700449764994e+01 9.289699997124277075e+00 2.502473788257171350e+01 -1.695951163178136101e+00 -7.282967075220883935e+00 -9.008534171159627846e+00 0.000000000000000000e+00 0.000000000000000000e+00 0.000000000000000000e+00 -9.125220550668897940e-16 -6.229899853596520749e-15 0.000000000000000000e+00 4.811612188380631958e-16 4.162255372871736855e-15 0.000000000000000000e+00 1.653730176847921976e-15 1.041574965380668553e-15 4.297433537013155136e-15 0.000000000000000000e+00 0.000000000000000000e+00 0.000000000000000000e+00 0.000000000000000000e+00 4.867401100516205301e-15 -6.690845845234881565e-16 0.000000000000000000e+00 -6.160799067795510463e-15 -7.392043818959562093e-15 1.653730176847921976e-15 1.041574965380668553e-15 4.297433537013155136e-15 0.000000000000000000e+00 -5.645073154426705855e-15 -7.764438702661931688e-16 0.000000000000000000e+00 1.037656658081691037e-15 -1.038934988063891335e-14 0.000000000000000000e+00 -4.337991195290642284e-15 3.237868790222238008e-15 1.653730176847921976e-15 1.041574965380668553e-15 4.297433537013155136e-15 0.000000000000000000e+00 0.000000000000000000e+00 0.000000000000000000e+00 0.000000000000000000e+00 8.465338867237276996e-16 -1.067632081798496344e-14 0.000000000000000000e+00 1.743321573446756670e-14 -1.063048594538635374e-14 1.653730176847921976e-15 1.041574965380668553e-15 4.297433537013155136e-15 0.000000000000000000e+00 0.000000000000000000e+00 0.000000000000000000e+00 0.000000000000000000e+00 -1.454538882809657457e-15 -1.117632364978821321e-14 0.000000000000000000e+00 -1.955428988599873745e-15 -6.758073349425584593e-15
4.501127667938122840e+02 -4.289535477671776315e-02 -9.658595155979526892e-02 -4.662993882201439955e-01 -3.373018969928795463e-01 -1.219644595181954783e+00 1.050428289633117851e+00 -1.087529823124287753e-01 6.918306529818522010e-01 2.250556875529228784e-01 -1.800852069357326835e-01 2.221057296686162752e-01 -2.493788841626437269e-01 5.706720036079128144e-01 6.425194827858653479e-01 -1.651834136051753832e-02 7.397928672655178506e-01 -8.166451531133817054e-02 -3.323836810024439758e-01 2.828398169655614303e-01 5.588101401456435635e-01 -4.160383270313288695e-01 -5.342058346018134785e-01 3.809126955125379244e-01 -6.959099746050210200e-01 -1.402330858208974129e-01 -2.581078539810491984e-02 -1.740528197236733965e-01 -7.784874243729542065e-02 -7.063886554610456642e-03 -2.323630052424539572e-01 -1.586926732805907792e-01 -1.109503304792514577e-01 4.210237225590794663e-02 -6.580876213622910420e-02 1.955098275538911384e-02 1.659896230016598417e-02 -3.226367393223653068e-02 2.330172716879030381e-01 8.415906717261937287e-01 -1.182244020770531368e+00 4.702079126598225356e-01 -1.808379879766222054e-01 9.107899102836830574e-01 3.784264313510645739e-01 -1.313659858972599848e+00 -8.305842784056308048e+00 -1.706111937477981622e+00 1.293072579122209076e+00 1.383018470691057189e+01 1.842801256895803874e+02 -2.870172472509621708e-02 3.258724668265393198e+00 2.594951541326010247e+00 0.000000000000000000e+00 0.000000000000000000e+00 0.000000000000000000e+00 -1.287314814345699367e-15 -4.311962165951766564e-15 0.000000000000000000e+00 -8.096844946126219578e-15 -2.279945354457242348e-15 0.000000000000000000e+00 -2.794956055000618449e-16 -9.289361883627493646e-15 3.112797714350991050e-16 0.000000000000000000e+00 0.000000000000000000e+00 0.000000000000000000e+00 0.000000000000000000e+00 2.517779720288543737e-15 1.065265680575107448e-15 0.000000000000000000e+00 -1.399398672027929722e-15 6.758965648803895423e-15 -2.794956055000618449e-16 -9.289361883627493646e-15 3.112797714350991050e-16 0.000000000000000000e+00 7.827527517107589488e-15 2.182057772123528960e-15 0.000000000000000000e+00 5.971144869996634861e-15 1.723715618501322538e-14 0.000000000000000000e+00 -2.693975799337727616e-15 -3.558461008142416036e-15 -2.794956055000618449e-16 -9.289361883627493646e-15 3.112797714350991050e-16 0.000000000000000000e+00 0.000000000000000000e+00 0.000000000000000000e+00 0.000000000000000000e+00 2.432709552382014535e-15 6.229040642227997827e-15 0.000000000000000000e+00 4.907996569464443815e-15 8.091836927977867798e-15 -2.794956055000618449e-16 -9.289361883627493646e-15 3.112797714350991050e-16 0.000000000000000000e+00 0.000000000000000000e+00 0.000000000000000000e+00 0.000000000000000000e+00 6.772301658253780376e-15 2.708696450183273080e-14 0.000000000000000000e+00 1.059649015607769790e-14 1.697151809757906207e-14 -3.372607723273768898e-01 -6.115796977515393085e-01 5.075283945253998841e-01 6.260231419236975015e+00 -3.830446515629551296e+00 -7.834906717515635499e+00 -1.149028085793183429e+01 9.035348382276145784e+00 3.272826724169917156e+01 -1.895977548940618762e+00 -7.239668092301005053e+00 -9.521898858792445353e+00 0.000000000000000000e+00 0.000000000000000000e+00 0.000000000000000000e+00 -1.471645453061706032e-15 -6.130399541920517043e-15 0.000000000000000000e+00 6.365121001477645728e-16 2.953827749794256131e-15 0.000000000000000000e+00 1.765942554304469416e-15 1.160162523442424554e-15 4.031065398594526249e-15 0.000000000000000000e+00 0.000000000000000000e+00 0.000000000000000000e+00 0.000000000000000000e+00 4.990654660650276877e-15 -9.603662052683856228e-16 0.000000000000000000e+00 -6.224355442862005574e-15 -6.734555598072607236e-15 1.765942554304469416e-15 1.160162523442424554e-15 4.031065398594526249e-15 0.000000000000000000e+00 -5.489739836816861020e-15 -1.039697456481582127e-15 0.000000000000000000e+00 7.457148397063439235e-16 -1.055608157315441007e-14 0.000000000000000000e+00 -5.160963513578330169e-15 3.158845689469673299e-15 1.765942554304469416e-15 1.160162523442424554e-15 4.031065398594526249e-15 0.000000000000000000e+00 0.000000000000000000e+00 0.000000000000000000e+00 0.000000000000000000e+00 1.028177042238227568e-15 -1.041129743931675007e-14 0.000000000000000000e+00 1.633832569414425529e-14 -1.126489067630344098e-14 1.765942554304469416e-15 1.160162523442424554e-15 4.031065398594526249e-15 0.000000000000000000e+00 0.000000000000000000e+00 0.000000000000000000e+00 0.000000000000000000e+00 -1.162282250824826468e-15 -1.145892200198259922e-14 0.000000000000000000e+00 -1.637574586631180613e-15 -5.917141589956986820e-15
